# Blender v3.0.1 OBJ File: ''
# www.blender.org
mtllib alignment_block.mtl
o glider-Body
v -7.000000 7.000000 -0.000002
v -7.000000 -7.000000 0.000002
v -7.000000 -7.000000 0.200002
v -7.000000 7.000000 0.199998
v 7.000000 -7.000000 0.000002
v 7.000000 -7.000000 0.200002
v 7.000000 7.000000 -0.000002
v 7.000000 7.000000 0.199998
v -5.700000 -4.025001 0.000001
v 7.000000 -4.025000 0.000001
v 7.000000 4.025001 -0.000001
v -5.700001 4.025000 -0.000001
v 4.188297 -6.000000 0.200002
v 7.000000 -4.025000 0.200001
v 4.188297 -6.200000 0.200002
v -0.700000 -4.025000 0.200001
v -0.700000 -4.225000 0.200001
v -5.700000 -4.225000 0.200001
v -6.000000 -4.225000 0.200001
v 3.830532 5.855454 0.199998
v 7.000000 4.025001 0.199999
v 3.830532 6.055454 0.199998
v -0.700000 4.025000 0.199999
v -6.000000 4.224999 0.199999
v -5.700001 4.224999 0.199999
v -0.700000 4.225000 0.199999
v -5.700001 4.025000 0.199999
v -5.700000 -4.025001 0.200001
v 3.830532 5.855455 3.199998
v -0.700000 4.025001 3.199999
v 3.830532 6.055455 3.199998
v -0.700000 4.225001 3.199999
v -5.700001 4.225000 3.199999
v -6.000000 4.225000 3.199999
v -6.000000 -4.224999 3.200001
v -5.700000 -4.224999 3.200001
v -0.700000 -4.224999 3.200001
v 4.188297 -6.199999 3.200002
v 4.188297 -5.999999 3.200002
v -0.700000 -4.024999 3.200001
v -5.700001 4.025001 3.199999
v -5.700000 -4.025000 3.200001
vn -1.0000 -0.0000 0.0000
vn 0.0000 -1.0000 0.0000
vn -0.0000 1.0000 0.0000
vn 0.0000 -0.0000 -1.0000
vn 0.0000 0.0000 1.0000
vn 1.0000 0.0000 0.0000
vn 0.3746 -0.9272 0.0000
vn -0.3746 0.9272 -0.0000
vn -0.3746 -0.9272 0.0000
vn 0.3746 0.9272 -0.0000
usemtl Default_OBJ
s 1
f 1//1 2//1 3//1
f 1//1 3//1 4//1
f 2//2 5//2 6//2
f 2//2 6//2 3//2
f 7//3 1//3 4//3
f 7//3 4//3 8//3
f 2//4 9//4 5//4
f 5//4 9//4 10//4
f 11//4 12//4 7//4
f 12//4 1//4 7//4
f 2//4 1//4 9//4
f 9//4 1//4 12//4
f 13//5 6//5 14//5
f 13//5 15//5 6//5
f 16//5 13//5 14//5
f 3//5 15//5 17//5
f 3//5 6//5 15//5
f 18//5 3//5 17//5
f 19//5 3//5 18//5
f 20//5 21//5 8//5
f 22//5 20//5 8//5
f 23//5 21//5 20//5
f 4//5 24//5 25//5
f 4//5 25//5 26//5
f 4//5 26//5 22//5
f 4//5 22//5 8//5
f 4//5 3//5 19//5
f 4//5 19//5 24//5
f 5//6 10//6 14//6
f 5//6 14//6 6//6
f 21//6 7//6 8//6
f 11//6 7//6 21//6
f 23//2 27//2 12//2
f 11//2 23//2 12//2
f 21//2 23//2 11//2
f 27//6 28//6 9//6
f 27//6 9//6 12//6
f 16//3 14//3 10//3
f 9//3 16//3 10//3
f 28//3 16//3 9//3
f 23//7 20//7 29//7
f 23//7 29//7 30//7
f 20//6 22//6 31//6
f 20//6 31//6 29//6
f 22//8 26//8 32//8
f 22//8 32//8 31//8
f 26//3 25//3 33//3
f 26//3 33//3 32//3
f 33//3 25//3 34//3
f 25//3 24//3 34//3
f 24//1 19//1 34//1
f 34//1 19//1 35//1
f 35//2 19//2 36//2
f 19//2 18//2 36//2
f 36//2 17//2 37//2
f 18//2 17//2 36//2
f 17//9 15//9 38//9
f 17//9 38//9 37//9
f 15//6 13//6 39//6
f 15//6 39//6 38//6
f 39//10 16//10 40//10
f 13//10 16//10 39//10
f 27//2 23//2 30//2
f 27//2 30//2 41//2
f 28//6 27//6 42//6
f 42//6 27//6 41//6
f 16//3 28//3 42//3
f 16//3 42//3 40//3
f 32//5 30//5 29//5
f 32//5 29//5 31//5
f 33//5 41//5 30//5
f 33//5 30//5 32//5
f 35//5 36//5 42//5
f 41//5 35//5 42//5
f 34//5 41//5 33//5
f 34//5 35//5 41//5
f 42//5 36//5 37//5
f 42//5 37//5 40//5
f 37//5 38//5 39//5
f 40//5 37//5 39//5
